<svg xmlns="http://www.w3.org/2000/svg" width="1200" height="630" viewBox="0 0 1200 630">
  <defs>
    <linearGradient id="bg" x1="0" y1="0" x2="1" y2="1">
      <stop offset="0" stop-color="#05080f"/>
      <stop offset="1" stop-color="#0a1322"/>
    </linearGradient>
    <radialGradient id="glowA" cx="0.16" cy="0.06" r="0.6">
      <stop offset="0" stop-color="#34d399" stop-opacity="0.20"/>
      <stop offset="1" stop-color="#34d399" stop-opacity="0"/>
    </radialGradient>
    <radialGradient id="glowB" cx="0.95" cy="0.10" r="0.55">
      <stop offset="0" stop-color="#22d3ee" stop-opacity="0.16"/>
      <stop offset="1" stop-color="#22d3ee" stop-opacity="0"/>
    </radialGradient>
  </defs>
  <rect width="1200" height="630" fill="url(#bg)"/>
  <rect width="1200" height="630" fill="url(#glowA)"/>
  <rect width="1200" height="630" fill="url(#glowB)"/>
  <g stroke="#8fa1b8" stroke-opacity="0.08" stroke-width="1">
    <path d="M0 90 H1200 M0 180 H1200 M0 270 H1200 M0 360 H1200 M0 450 H1200 M0 540 H1200"/>
    <path d="M100 0 V630 M200 0 V630 M300 0 V630 M400 0 V630 M500 0 V630 M600 0 V630 M700 0 V630 M800 0 V630 M900 0 V630 M1000 0 V630 M1100 0 V630"/>
  </g>
  <rect x="80" y="80" width="1040" height="470" rx="22" fill="none" stroke="#1c2a42" stroke-width="2"/>
  <text x="130" y="255" font-family="Helvetica,Arial,sans-serif" font-size="27" letter-spacing="7" fill="#34d399">CYBERSECURITY ENGINEER</text>
  <text x="126" y="355" font-family="Helvetica,Arial,sans-serif" font-size="72" font-weight="bold" fill="#e8edf5">Allan Kimani Wanjiku</text>
  <text x="130" y="425" font-family="Helvetica,Arial,sans-serif" font-size="32" fill="#22d3ee">Offensive Security · Purple Team · Security Automation</text>
  <text x="130" y="495" font-family="Courier,monospace" font-size="24" fill="#8fa1b8">allanbkp343-stack.github.io</text>
</svg>
